SplineFontDB: 3.0
FontName: Jannon2
FullName: Jannon2
FamilyName: Jannon2
Weight: Regular
Copyright: Created by trashman with FontForge 2.0 (http://fontforge.sf.net)
UComments: "2010-9-5: Created." 
Version: 001.000
ItalicAngle: 0
UnderlinePosition: -100
UnderlineWidth: 50
Ascent: 700
Descent: 300
LayerCount: 3
Layer: 0 0 "Back"  1
Layer: 1 0 "Fore"  0
Layer: 2 0 "backup"  0
NeedsXUIDChange: 1
XUID: [1021 658 797806517 9253483]
FSType: 0
OS2Version: 0
OS2_WeightWidthSlopeOnly: 0
OS2_UseTypoMetrics: 1
CreationTime: 1283672823
ModificationTime: 1284524794
OS2TypoAscent: 0
OS2TypoAOffset: 1
OS2TypoDescent: 0
OS2TypoDOffset: 1
OS2TypoLinegap: 90
OS2WinAscent: 0
OS2WinAOffset: 1
OS2WinDescent: 0
OS2WinDOffset: 1
HheadAscent: 0
HheadAOffset: 1
HheadDescent: 0
HheadDOffset: 1
MarkAttachClasses: 1
DEI: 91125
Encoding: UnicodeBmp
UnicodeInterp: none
NameList: Adobe Glyph List
DisplaySize: -48
AntiAlias: 1
FitToEm: 1
WinInfo: 64 16 4
BeginPrivate: 9
BlueValues 23 [-21 0 380 410 637 668]
OtherBlues 11 [-260 -241]
BlueScale 9 0.0319355
BlueFuzz 1 0
BlueShift 1 7
StdHW 4 [24]
StdVW 4 [71]
StemSnapH 4 [24]
StemSnapV 4 [71]
EndPrivate
BeginChars: 65536 55

StartChar: a
Encoding: 97 97 0
Width: 408
VWidth: 0
Flags: W
HStem: -14 52<93.5 179.594> -9 63<282 361.33> 365 34<144.469 231.392>
VStem: 37 73<47.3158 124.649 258.812 316.433> 236 71<66.1794 204.997 237.1 360.778>
LayerCount: 3
Back
SplineSet
308 -5 m 4x78
 256 -5 239 49 235 49 c 4
 234 49 221 35 201 20 c 4
 181 5 151 -14 111 -14 c 4xb8
 76 -14 37 6 37 55 c 4
 37 146 125 188 211 225 c 4
 240 237 240 244 240 311 c 4
 240 340 232 365 194 365 c 4
 162 365 137 348 123 325 c 4
 115 311 111 292 105 276 c 4
 99 259 66 247 57 247 c 4
 45 247 38 253 38 269 c 4
 38 308 114 399 215 399 c 4
 265.896494462 399 313.228809678 371.257835144 313.228809678 313.994985912 c 4
 313.228809678 266.773904226 307 165 307 123 c 6
 307 105 l 6
 307 77 313 57 335 57 c 4
 351 57 359 62 368 68 c 4
 379 75 389 76 389 61 c 4
 389 28 348 -5 308 -5 c 4x78
110 91 m 4
 110 59 132 38 160 38 c 4
 171 38 183 42 195 50 c 4
 229 72 236 93 236 181 c 6
 236 192 l 6
 236 201 235 205 231 205 c 4
 227 205 219 203 210 199 c 4
 164 181 110 148 110 91 c 4
EndSplineSet
Fore
SplineSet
308 -9 m 0x78
 256 -9 243 52 239 52 c 0
 234 52 176 -14 111 -14 c 0xb8
 76 -14 37 6 37 55 c 0
 37 146 125 188 211 225 c 0
 220 229 235 235 237 237 c 0
 239 239 240 250 240 264 c 2
 240 311 l 2
 240 340 232 365 194 365 c 0
 162 365 137 348 123 325 c 0
 115 311 111 292 105 276 c 0
 99 259 66 247 57 247 c 0
 45 247 38 253 38 269 c 0
 38 308 114 399 215 399 c 0
 266 399 313 371 313 314 c 0
 313 267 307 165 307 123 c 2
 307 105 l 2
 307 74 315 54 341 54 c 0
 368 54 381 71 384 71 c 0
 386 71 393 53 393 50 c 0
 393 39 349 -9 308 -9 c 0x78
110 91 m 0
 110 59 132 38 160 38 c 0
 171 38 183 42 195 50 c 0
 229 72 236 93 236 181 c 2
 236 192 l 2
 236 201 235 205 231 205 c 0
 227 205 219 203 210 199 c 0
 164 181 110 148 110 91 c 0
EndSplineSet
Validated: 1
EndChar

StartChar: b
Encoding: 98 98 1
Width: 488
VWidth: 0
Flags: W
HStem: -10 36<195.852 315.838> 348 49<186.921 302.924> 609 22<27.0449 55.9666> 648 20G<142 145.5>
VStem: 75 69<67.6353 338 353 599.484> 379 74<103.354 267.512>
LayerCount: 3
Back
SplineSet
86 -32 m 4
 71 -32 68 -22 68 -12 c 4
 68 0 75 88 75 152 c 6
 75 565 l 6
 75 590 73 590 55 597 c 4
 42 602 26 605 26 618 c 4
 26 627 28 630 46 638 c 4
 76 651 116 668 133 668 c 4
 148 668 151 661 151 648 c 4
 151 632 146 601 146 572 c 6
 146 370 l 6
 146 353 150 355 160 361 c 4
 187 378 229 397 275 397 c 4
 380 397 454 294 454 200 c 4
 454 81 367 -10 246 -10 c 4
 191 -10 139 18 131 18 c 4
 112 18 112 -32 86 -32 c 4
380 188 m 4
 380 276 320 348 219 348 c 4
 179 348 166 344 146 330 c 4
 144 329 144 298 144 266 c 6
 144 99 l 6
 144 81 194 26 257 26 c 4
 345 26 380 112 380 188 c 4
EndSplineSet
Fore
SplineSet
75 545 m 2
 75 582 66 601 29 609 c 0
 28 609 27 616 27 622 c 0
 27 626 27 631 29 631 c 0
 59 637 107 657 133 667 c 0
 135 668 140 668 144 668 c 0
 147 668 149 668 149 667 c 0
 149 662 146 601 146 531 c 2
 146 353 l 1
 179 372 220 397 275 397 c 0
 380 397 453 294 453 200 c 0
 453 81 367 -10 246 -10 c 0
 191 -10 136 18 128 18 c 0
 98 18 97 -31 93 -31 c 0
 88 -31 67 -27 67 -25 c 0
 67 -23 75 -5 75 152 c 2
 75 545 l 2
219 348 m 0
 175 348 144 328 144 328 c 1
 144 99 l 2
 144 81 194 26 257 26 c 0
 340 26 379 106 379 175 c 0
 379 272 323 348 219 348 c 0
EndSplineSet
Validated: 1
EndChar

StartChar: c
Encoding: 99 99 2
Width: 398
VWidth: 0
Flags: W
HStem: -18 54<174.032 302.164> 371 34<176.863 267.808>
VStem: 26 74<111.772 274.722>
LayerCount: 3
Back
SplineSet
323 320 m 0
 281 320 272 371 233 371 c 0
 204 371 100 347 100 199 c 0
 100 103 165 36 251 36 c 0
 316 36 318 56 339 62 c 0
 346 64 350 57 350 52 c 0
 350 22 277 -18 216 -18 c 0
 112 -18 26 54 26 174 c 0
 26 303 119 405 256 405 c 0
 298 405 352 392 352 351 c 0
 352 334 338 320 323 320 c 0
EndSplineSet
Fore
SplineSet
323 320 m 0
 281 320 272 371 233 371 c 0
 204 371 100 347 100 199 c 0
 100 103 165 36 251 36 c 0
 320 36 336 66 339 66 c 0
 342 66 353 50 353 46 c 0
 353 43 305 -18 216 -18 c 0
 112 -18 26 54 26 174 c 0
 26 303 119 405 256 405 c 0
 298 405 352 392 352 351 c 0
 352 334 338 320 323 320 c 0
EndSplineSet
Validated: 1
Layer: 2
SplineSet
327 326 m 4
 285 326 272 373 233 373 c 4
 203 373 100 345 100 183 c 4
 100 98 172 33 251 33 c 4
 311 33 321 57 336 57 c 4
 343 57 347 52 347 47 c 4
 347 17 272 -21 216 -21 c 4
 112 -21 26 54 26 174 c 4
 26 303 119 407 256 407 c 4
 298 407 356 398 356 357 c 4
 356 340 348 326 327 326 c 4
EndSplineSet
EndChar

StartChar: d
Encoding: 100 100 3
Width: 469
VWidth: 0
Flags: W
HStem: -15 48<388 435.761> 37 6<245 318> 354 31<165.885 286.088> 620 30<253.51 305.695> 638 20G<379 383>
VStem: 21 75<113.055 272.11> 319 69<27.0073 37 50.5938 329.527 371.003 611.872>
LayerCount: 3
Back
SplineSet
439 37 m 4xbc
 446 37 451 27 451 17 c 4
 451 5 340 -18 338 -18 c 4xbc
 311 -18 325 32 317 32 c 4
 315 32 261 -5 209 -5 c 4
 88 -5 21 73 21 177 c 4
 21 289 103 380 227 380 c 4
 262 380 307 366 313 366 c 4
 318 366 317 371 317 384 c 6
 317 578 l 6
 317 627 254 603 254 633 c 4
 254 645 265 651 280 652 c 4
 322 655 335 656 361 656 c 4
 376 656 389 646 389 620 c 4
 389 600 388 579 388 561 c 6
 388 68 l 6
 388 44 391 32 407 32 c 4x7c
 418 32 431 37 439 37 c 4xbc
96 194 m 4
 96 83 191 43 245 43 c 4x7c
 273 43 319 48 319 74 c 6
 319 251 l 6
 319 310 281 349 228 349 c 4
 148 349 96 291 96 194 c 4
EndSplineSet
Fore
SplineSet
445 33 m 0xee
 448 33 452 16 452 13 c 0
 452 10 362 -15 332 -15 c 0
 330 -15 323 -11 323 -9 c 2
 321 24 l 2
 320 37 321 37 318 37 c 0
 316 37 261 -5 209 -5 c 0
 88 -5 21 75 21 179 c 0
 21 291 103 385 227 385 c 0
 262 385 307 371 313 371 c 0
 318 371 317 375 317 383 c 2
 317 574 l 2
 317 621 275 617 255 620 c 0
 253 620 252 650 255 650 c 0xf6
 306 651 376 658 382 658 c 0
 384 658 389 648 389 646 c 0
 389 626 388 575 388 557 c 2
 388 45 l 2
 388 37 389 27 401 27 c 0
 416 27 443 33 445 33 c 0xee
96 196 m 0
 96 85 182 43 245 43 c 0
 273 43 319 48 319 74 c 2
 319 269 l 2
 319 328 281 354 228 354 c 0
 148 354 96 293 96 196 c 0
EndSplineSet
Validated: 1
EndChar

StartChar: e
Encoding: 101 101 4
Width: 421
VWidth: 0
Flags: W
HStem: -18 63<169.756 298.334> 240 25<119.008 282.913> 369 36<177.5 288.17>
VStem: 30 74<116.532 237.931> 307 76<249 330.572>
LayerCount: 3
Back
SplineSet
374 75 m 4
 374 64 319 -18 225 -18 c 4
 124 -18 30 56 30 177 c 4
 30 291 112 405 223 405 c 4
 318 405 383 328 383 262 c 4
 383 236 374 233 359 233 c 4
 330 233 140 240 116 240 c 4
 105 240 104 222 104 205 c 4
 104 103 173 45 248 45 c 4
 333 45 351 87 359 87 c 4
 370 87 374 81 374 75 c 4
307 311 m 4
 307 354 266 369 226 369 c 4
 175 369 119 303 119 278 c 4
 119 266 130 265 141 265 c 4
 241 265 307 265 307 311 c 4
EndSplineSet
Fore
SplineSet
221 -18 m 0
 119 -18 30 54 30 184 c 0
 30 296 114 405 223 405 c 0
 318 405 383 328 383 262 c 0
 383 236 374 233 359 233 c 0
 330 233 140 240 116 240 c 0
 105 240 104 222 104 205 c 0
 104 103 169 45 244 45 c 0
 329 45 358 91 360 91 c 0
 362 91 375 74 375 72 c 0
 375 68 309 -18 221 -18 c 0
307 311 m 0
 307 354 266 369 226 369 c 0
 175 369 119 303 119 278 c 0
 119 266 130 265 141 265 c 0
 241 265 307 265 307 311 c 0
EndSplineSet
Validated: 1
EndChar

StartChar: f
Encoding: 102 102 5
Width: 318
VWidth: 0
Flags: W
HStem: -3 28<35.0007 92.0469 181.095 249.999> 332 48<172 287> 332 31<41.5306 100.961> 608 53<229.499 318.159>
VStem: 101 71<30.0003 332 380 523.43>
LayerCount: 3
Back
SplineSet
172 393 m 4xb8
 172 380 175 380 193 380 c 6
 270 380 l 6
 286 380 287 379 287 367 c 6
 287 344 l 6
 287 335 285 332 270 332 c 6
 193 332 l 6xd8
 173 332 172 330 172 315 c 6
 172 77 l 6
 172 35 192 33 231 26 c 4
 243 24 252 21 252 10 c 4
 252 -2 241 -3 231 -3 c 4
 219 -3 172 1 139 1 c 4
 106 1 85 -3 53 -3 c 4
 44 -3 37 -1 37 9 c 4
 37 21 43 22 55 25 c 4
 87 33 101 39 101 72 c 6
 101 316 l 6
 101 329 99 332 82 332 c 6
 60 332 l 6
 47 332 39 334 39 346 c 4
 39 365 62 366 78 370 c 4
 102 376 100 374 101 405 c 4
 102 441 107 490 127 535 c 4
 152 593 233 661 305 661 c 4
 352 661 388 647 388 623 c 4
 388 601 370 578 349 578 c 4
 316 578 295 608 266 608 c 4
 173 608 172 442 172 393 c 4xb8
EndSplineSet
Fore
SplineSet
172 72 m 2xd8
 172 25 198 25 247 25 c 0
 249 25 250 18 250 11 c 0
 250 3 249 -3 247 -3 c 0
 238 -3 156 0 136 0 c 0
 114 0 43 -3 38 -3 c 0
 36 -3 35 3 35 11 c 0
 35 19 36 25 38 25 c 0
 70 25 101 25 101 69 c 2
 101 316 l 2
 101 329 100.075888052 331.087728741 87 332 c 2
 44 335 l 2
 38.9547900969 335.351991389 40 363 44 363 c 0xb8
 47 363 101 374 101 378 c 2
 101 386 l 2
 101 432 104 483 127 535 c 0
 152 593 233 661 305 661 c 0
 352 661 388 647 388 623 c 0
 388 601 370 578 349 578 c 0
 316 578 295 608 266 608 c 0
 173 608 172 504 172 398 c 2
 172 393 l 2
 172 380 173 380 183 380 c 2
 270 380 l 2
 286 380 287 379 287 367 c 2
 287 344 l 2
 287 335 285 332 270 332 c 2
 185 332 l 2
 172 332 172 331 172 318 c 2
 172 72 l 2xd8
EndSplineSet
Validated: 524289
EndChar

StartChar: g
Encoding: 103 103 6
Width: 473
VWidth: 0
Flags: W
HStem: -260 34<110.667 264.839> -28 63<122.534 335.67> 103 25<191.781 264.456> 314 49<370.912 456> 379 28<183.921 260.877>
VStem: -4 65<-190.894 -93.4986> 44 76<38.985 96.6951> 70 72<173.741 339.28> 307 67<178.22 308.445> 377 49<-152.556 -60.0681>
LayerCount: 3
Back
SplineSet
223 379 m 4xf9c0
 169 379 142 321 142 260 c 4
 142 195 172 128 230 128 c 4
 283 128 307 184 307 243 c 4
 307 309 277 379 223 379 c 4xf9c0
377 -101 m 4
 377 -32 258 -30 145 -30 c 4
 136 -30 61 -80 61 -144 c 4xfcc0
 61 -212 152 -226 194 -226 c 4
 269 -226 377 -176 377 -101 c 4
230 407 m 4
 299 407 342 363 355 363 c 6
 416 363 l 6
 448 363 456 362 456 332 c 4
 456 322 454 314 444 314 c 6
 390 314 l 6
 374 314 373 307 373 297 c 4
 373 288 374 279 374 270 c 4
 374 181 316 103 211 103 c 4
 195 103 177 105 162 105 c 4
 139 105 120 85 120 66 c 4xfac0
 120 50 132 35 165 35 c 4
 297 34 426 41 426 -94 c 4
 426 -181 280 -260 175 -260 c 4
 91 -260 -4 -241 -4 -155 c 4xfcc0
 -4 -51 108 -40 108 -21 c 4
 108 -14 44 24 44 67 c 4xfac0
 44 113 139 109 139 121 c 4
 139 131 70 164 70 266 c 4xf9c0
 70 342 129 407 230 407 c 4
EndSplineSet
Fore
SplineSet
223 379 m 0xf9c0
 169 379 142 321 142 260 c 0
 142 195 172 128 230 128 c 0
 283 128 307 184 307 243 c 0
 307 309 277 379 223 379 c 0xf9c0
377 -101 m 0
 377 -32 257 -28 144 -28 c 0
 139 -28 61 -80 61 -144 c 0xfcc0
 61 -212 152 -226 194 -226 c 0
 269 -226 377 -176 377 -101 c 0
230 407 m 0
 280 407 317 384 338 371 c 0
 346 366 346 363 355 363 c 2
 446 363 l 2
 455 363 456 361 456 353 c 2
 456 323 l 2
 456 316 454 314 444 314 c 2
 390 314 l 2
 375 314 369 315 371 305 c 0
 373 297 374 279 374 270 c 0
 374 181 326 103 211 103 c 0
 195 103 174 109 168 109 c 0
 144 109 120 85 120 66 c 0xfac0
 120 50 132 35 165 35 c 0
 297 34 426 41 426 -94 c 0
 426 -181 280 -260 175 -260 c 0
 83 -260 -4 -240 -4 -150 c 0xfcc0
 -4 -68 114 -27 114 -23 c 0
 114 -19 44 9 44 67 c 0xfac0
 44 113 139 109 139 121 c 0
 139 131 70 153 70 266 c 0xf9c0
 70 342 129 407 230 407 c 0
EndSplineSet
Validated: 1
EndChar

StartChar: h
Encoding: 104 104 7
Width: 513
VWidth: 0
Flags: W
HStem: -3 28<28.0007 83.4312 170.828 231.999 294.001 349.769 434.724 486.999> 351 47<221.407 333.947> 625 20G<160 163.5>
VStem: 93 71<30.3413 317.111 328 572.79> 358 71<29.0936 326.716>
LayerCount: 3
Back
SplineSet
164 72 m 6
 164 30 177 33 216 26 c 4
 228 24 238 21 238 10 c 4
 238 -2 226 -3 216 -3 c 4
 204 -3 164 1 131 1 c 4
 98 1 69 -3 37 -3 c 4
 28 -3 21 -1 21 9 c 4
 21 21 27 22 39 25 c 4
 71 33 93 34 93 67 c 6
 93 525 l 6
 93 561 88 568 66 573 c 4
 57 575 43 579 43 591 c 4
 43 603 57 608 68 612 c 4
 100 623 129 637 145 637 c 4
 161 637 170 628 170 618 c 4
 170 589 164 465 164 395 c 6
 164 358 l 6
 164 340 165 334 168 334 c 4
 172 334 178 343 187 351 c 4
 218 378 254 398 300 398 c 4
 397 398 429 349 429 255 c 6
 429 72 l 6
 429 30 430 34 461 26 c 4
 473 23 483 21 483 10 c 4
 483 -2 471 -3 461 -3 c 4
 449 -3 416 1 386 1 c 4
 355 1 336 -3 312 -3 c 4
 303 -3 296 -1 296 9 c 4
 296 21 302 22 314 25 c 4
 346 33 358 34 358 67 c 6
 358 228 l 6
 358 284 356 351 278 351 c 4
 249 351 218 344 195 326 c 4
 165 303 164 271 164 223 c 6
 164 72 l 6
EndSplineSet
Fore
SplineSet
164 508 m 2
 164 328 l 1
 197 362 234 398 300 398 c 0
 397 398 429 349 429 255 c 2
 429 72 l 2
 429 25 444 25 484 25 c 0
 486 25 487 18 487 11 c 0
 487 3 486 -3 484 -3 c 0
 475 -3 413 0 393 0 c 0
 371 0 302 -3 297 -3 c 0
 295 -3 294 3 294 11 c 0
 294 19 295 25 297 25 c 0
 330 25 358 25 358 69 c 2
 358 228 l 2
 358 278 356 351 278 351 c 0
 249 351 218 344 195 326 c 0
 165 303 164 275 164 227 c 2
 164 72 l 2
 164 25 182 25 229 25 c 0
 231 25 232 18 232 11 c 0
 232 3 231 -3 229 -3 c 0
 220 -3 148 0 128 0 c 0
 106 0 36 -3 31 -3 c 0
 29 -3 28 3 28 11 c 0
 28 19 29 25 31 25 c 0
 59 25 93 25 93 69 c 2
 93 523 l 2
 93 559 81 575 44 583 c 0
 42 583 40 604 44 605 c 0
 74 611 125 634 151 644 c 0
 153 645 158 645 162 645 c 0
 165 645 167 645 167 644 c 0
 167 639 164 578 164 508 c 2
EndSplineSet
Validated: 1
EndChar

StartChar: i
Encoding: 105 105 8
Width: 264
VWidth: 0
Flags: W
HStem: -3 28<29.0007 86.0469 173.322 228.999> 533 100<92.4375 175.562>
VStem: 84 100<541.438 624.562> 95 71<29.8409 314.405>
LayerCount: 3
Back
SplineSet
166 72 m 2xd0
 166 25 169 33 208 26 c 0
 220 24 230 21 230 10 c 0
 230 -2 218 -3 208 -3 c 0
 182 -3 153 1 120 1 c 0
 94 1 74 -3 44 -3 c 0
 35 -3 28 -1 28 9 c 0
 28 21 34 22 46 25 c 0
 78 33 95 26 95 67 c 2
 95 260 l 2
 95 298 89 301 66 316 c 0
 58 321 50 323 50 335 c 0
 50 357 68 347 108 372 c 0
 138 391 143 411 160 411 c 0
 167 411 171 406 171 391 c 0
 171 380 166 338 166 327 c 2
 166 72 l 2xd0
84 583 m 0xe0
 84 611 106 633 134 633 c 0
 162 633 184 611 184 583 c 0
 184 555 162 533 134 533 c 0
 106 533 84 555 84 583 c 0xe0
EndSplineSet
Fore
SplineSet
166 72 m 2xd0
 166 25 187 25 226 25 c 0
 228 25 229 18 229 11 c 4
 229 3 228 -3 226 -3 c 0
 217 -3 150 0 130 0 c 0
 108 0 37 -3 32 -3 c 0
 30 -3 29 3 29 11 c 4
 29 19 30 25 32 25 c 0
 64 25 95 25 95 69 c 2
 95 265 l 2
 95 314 64 320 53 322 c 0
 48 323 48 348 53 349 c 0
 68 352 122 371 149 411 c 0
 150 413 154 413 161 413 c 0
 169 413 170 413 170 411 c 0
 170 403 166 362 166 214 c 2
 166 72 l 2xd0
84 583 m 0xe0
 84 611 106 633 134 633 c 0
 162 633 184 611 184 583 c 0
 184 555 162 533 134 533 c 0
 106 533 84 555 84 583 c 0xe0
EndSplineSet
Validated: 1
EndChar

StartChar: j
Encoding: 106 106 9
Width: 264
VWidth: 0
Flags: W
HStem: -247 21G<51.5 57.5> 319 25<55.6253 93.9387> 533 100<92.4375 175.562>
VStem: 84 100<541.438 624.562> 111 71<-130.712 315.12> 162 22<397.461 413.32>
LayerCount: 3
Back
SplineSet
111 301 m 6xd0
 111 314 101 317 91 318 c 4
 66 320 56 319 56 332 c 4
 56 350 92 362 115 377 c 4
 152 401 154 411 168 411 c 4
 175 411 184 403 184 388 c 4xe0
 184 377 182 338 182 327 c 6
 182 -25 l 6
 182 -61 179 -102 154 -151 c 4
 145 -168 97 -241 55 -241 c 4
 49 -241 38 -231 38 -222 c 4
 38 -220 39 -218 40 -217 c 4
 107 -139 111 -114 111 -24 c 6
 111 301 l 6xd0
84 583 m 4
 84 611 106 633 134 633 c 4
 162 633 184 611 184 583 c 4
 184 555 162 533 134 533 c 4
 106 533 84 555 84 583 c 4
EndSplineSet
Fore
SplineSet
111 276 m 2xe8
 111 321 86 316 57 319 c 0
 56 319 53 343 57 344 c 0
 108 353 156 398 162 411 c 0
 163 414 184 415 184 411 c 0xe4
 184 404 182 338 182 327 c 2
 182 -25 l 2
 182 -181 63 -247 52 -247 c 0
 51 -247 34 -224 34 -220 c 0
 34 -216 111 -179 111 -54 c 2
 111 276 l 2xe8
84 583 m 0xf0
 84 611 106 633 134 633 c 0
 162 633 184 611 184 583 c 0
 184 555 162 533 134 533 c 0
 106 533 84 555 84 583 c 0xf0
EndSplineSet
Validated: 1
EndChar

StartChar: k
Encoding: 107 107 10
Width: 503
VWidth: 0
Flags: W
HStem: -3 28<30.0007 84.5869 171.517 221.999 274.001 318.92 427.3 471.999> 360 28<279.001 310.136 412.257 460.999> 648 20G<160 163.5>
VStem: 93 71<29.2965 195 214 600.326>
DStem2: 245 222 187 186 0.697865 -0.71623<-7.09418 181.859>
LayerCount: 3
Back
SplineSet
164 72 m 6
 164 45 179 34 194 27 c 4
 209 20 223 17 223 7 c 4
 223 -2 217 -3 209 -3 c 4
 189 -3 165 1 131 1 c 4
 98 1 70 -3 45 -3 c 4
 36 -3 29 -1 29 9 c 4
 29 21 35 24 47 27 c 4
 79 35 93 42 93 72 c 6
 93 549 l 6
 93 585 87 586 66 599 c 4
 58 604 43 610 43 622 c 4
 43 634 57 639 68 643 c 4
 100 654 132 668 154 668 c 4
 170 668 170 659 170 642 c 4
 169 613 164 602 164 532 c 6
 164 214 l 5
 202 241 311 316 311 337 c 4
 311 353 300 357 290 361 c 4
 283 364 277 367 277 375 c 4
 277 384 291 389 302 389 c 4
 322 389 353 387 368 387 c 4
 411 387 422 389 440 389 c 4
 453 389 462 387 462 376 c 4
 462 367 453 365 442 360 c 4
 340 313 305 279 250 238 c 4
 247 236 238 229 245 222 c 6
 397 66 l 6
 422 40 447 32 461 25 c 4
 469 21 473 18 473 13 c 4
 473 0 466 -1 449 -1 c 4
 414 -1 427 0 388 0 c 4
 345 0 330 -2 289 -2 c 4
 279 -2 273 0 273 9 c 4
 273 20 291 23 304 27 c 4
 312 30 319 33 319 40 c 4
 319 44 316 50 310 57 c 4
 264 108 208 166 187 186 c 4
 180 193 164 204 164 195 c 6
 164 72 l 6
EndSplineSet
Fore
SplineSet
93 549 m 2
 93 585 81 603 44 611 c 0
 42 611 40 632 44 633 c 0
 74 639 125 657 151 667 c 0
 153 668 158 668 162 668 c 0
 165 668 167 668 167 667 c 0
 167 662 164 601 164 531 c 2
 164 214 l 1
 202 241 311 316 311 337 c 0
 311 353 306 360 282 360 c 0
 280 360 279 367 279 374 c 0
 279 382 280 388 282 388 c 0
 291 388 348 385 368 385 c 0
 390 385 453 388 458 388 c 0
 460 388 461 382 461 374 c 0
 461 366 460 360 458 360 c 0
 430 360 395 337 376 326 c 0
 321 295 291 269 250 238 c 0
 241 232 237 230 245 222 c 2
 397 66 l 2
 422 40 440 25 469 25 c 0
 471 25 472 18 472 11 c 0
 472 3 471 -3 469 -3 c 0
 460 -3 393 0 373 0 c 0
 351 0 282 -3 277 -3 c 0
 275 -3 274 3 274 11 c 0
 274 19 275 25 277 25 c 0
 307 25 319 31 319 40 c 0
 319 44 316 50 310 57 c 0
 264 108 208 166 187 186 c 0
 180 193 164 204 164 195 c 2
 164 74 l 2
 164 27 184 25 219 25 c 0
 221 25 222 18 222 11 c 0
 222 3 221 -3 219 -3 c 0
 210 -3 148 0 128 0 c 0
 106 0 38 -3 33 -3 c 0
 31 -3 30 3 30 11 c 0
 30 19 31 25 33 25 c 0
 64 25 93 25 93 69 c 2
 93 549 l 2
EndSplineSet
Validated: 1
EndChar

StartChar: l
Encoding: 108 108 11
Width: 274
VWidth: 0
Flags: W
HStem: -3 28<22.0007 84.3043 171.031 236.999> 625 20G<160 163.5>
VStem: 93 71<29.8409 577.094>
LayerCount: 3
Back
SplineSet
164 72 m 6
 164 30 177 33 216 26 c 4
 228 24 238 21 238 10 c 4
 238 -2 226 -3 216 -3 c 4
 204 -3 164 1 131 1 c 4
 98 1 69 -3 37 -3 c 4
 28 -3 21 -1 21 9 c 4
 21 21 27 22 39 25 c 4
 71 33 93 34 93 67 c 6
 93 525 l 6
 93 561 87 562 66 575 c 4
 58 580 43 586 43 598 c 4
 43 610 57 615 68 619 c 4
 100 630 132 644 154 644 c 4
 170 644 170 635 170 618 c 4
 169 589 164 578 164 508 c 6
 164 72 l 6
EndSplineSet
Fore
SplineSet
164 72 m 2
 164 25 182 25 234 25 c 0
 236 25 237 18 237 11 c 0
 237 3 236 -3 234 -3 c 0
 225 -3 148 0 128 0 c 0
 106 0 30 -3 25 -3 c 0
 23 -3 22 3 22 11 c 0
 22 19 23 25 25 25 c 0
 64 25 93 25 93 69 c 2
 93 525 l 2
 93 561 81 580 44 588 c 0
 42 588 40 609 44 610 c 0
 74 616 125 634 151 644 c 0
 153 645 158 645 162 645 c 0
 165 645 167 645 167 644 c 0
 167 639 164 578 164 508 c 2
 164 72 l 2
EndSplineSet
Validated: 1
EndChar

StartChar: m
Encoding: 109 109 12
Width: 768
VWidth: 0
Flags: W
HStem: -3 28<33.0007 83.8248 171.322 226.999 283.001 340.047 427.322 482.999 539.001 596.047 683.119 733.999> 352 57<225.68 331.007 468.333 582.144>
VStem: 93 71<29.8409 318.374> 349 71<29.8409 332.49> 605 71<29.8409 327.246>
CounterMasks: 1 38
LayerCount: 3
Back
SplineSet
169 354 m 6
 169 340 180 344 187 351 c 4
 218 378 253 409 299 409 c 4
 361 409 393 378 411 329 c 5
 439 363 470 409 542 409 c 4
 625 409 676 362 676 270 c 6
 676 72 l 6
 676 30 677 34 708 26 c 4
 720 23 734 21 734 10 c 4
 734 -2 720 -3 710 -3 c 4
 698 -3 663 1 633 1 c 4
 602 1 575 -3 551 -3 c 4
 542 -3 534 -1 534 9 c 4
 534 21 541 22 553 25 c 4
 585 33 605 34 605 67 c 6
 605 246 l 6
 605 297 602 352 511 352 c 4
 459 352 420 337 420 270 c 6
 420 72 l 6
 420 30 430 34 461 26 c 4
 473 23 485 21 485 10 c 4
 485 -2 471 -3 461 -3 c 4
 449 -3 407 1 377 1 c 4
 346 1 320 -3 296 -3 c 4
 287 -3 279 -1 279 9 c 4
 279 21 286 22 298 25 c 4
 330 33 349 34 349 67 c 6
 349 260 l 6
 349 307 343 352 270 352 c 4
 219 352 164 323 164 292 c 6
 164 76 l 6
 164 56 168 36 206 26 c 4
 218 23 228 21 228 10 c 4
 228 -2 218 -3 208 -3 c 4
 196 -3 163 1 131 1 c 4
 109 1 51 -3 43 -3 c 4
 34 -3 27 -1 27 9 c 4
 27 21 33 22 45 25 c 4
 77 33 93 37 93 72 c 6
 93 275 l 6
 93 287 92 303 83 309 c 4
 68 319 52 324 52 337 c 4
 52 356 88 362 107 375 c 4
 135 395 133 406 153 406 c 4
 161 406 169 399 169 391 c 6
 169 354 l 6
EndSplineSet
Fore
SplineSet
162 343 m 2
 162 339 164 337 166 337 c 0
 170 337 221 409 299 409 c 0
 361 409 393 378 411 329 c 1
 439 363 470 409 542 409 c 0
 625 409 676 362 676 270 c 2
 676 72 l 2
 676 25 697 25 731 25 c 0
 733 25 734 18 734 11 c 0
 734 3 733 -3 731 -3 c 0
 722 -3 660 0 640 0 c 0
 618 0 547 -3 542 -3 c 0
 540 -3 539 3 539 11 c 0
 539 19 540 25 542 25 c 0
 574 25 605 25 605 69 c 2
 605 246 l 2
 605 297 602 352 511 352 c 0
 459 352 420 337 420 270 c 2
 420 72 l 2
 420 25 441 25 480 25 c 0
 482 25 483 18 483 11 c 0
 483 3 482 -3 480 -3 c 0
 471 -3 404 0 384 0 c 0
 362 0 291 -3 286 -3 c 0
 284 -3 283 3 283 11 c 0
 283 19 284 25 286 25 c 0
 318 25 349 25 349 69 c 2
 349 260 l 2
 349 307 343 352 270 352 c 0
 219 352 164 323 164 292 c 2
 164 72 l 2
 164 25 185 25 224 25 c 0
 226 25 227 18 227 11 c 0
 227 3 226 -3 224 -3 c 0
 215 -3 148 0 128 0 c 0
 106 0 41 -3 36 -3 c 0
 34 -3 33 3 33 11 c 0
 33 19 34 25 36 25 c 0
 60 25 93 25 93 69 c 2
 93 267 l 2
 93 316 65 324 54 326 c 0
 49 327 49 348 54 349 c 0
 89 358 116 369 140 406 c 0
 141 408 145 408 152 408 c 0
 160 408 165 408 165 406 c 0
 165 398 162 343 162 343 c 2
EndSplineSet
Validated: 1
EndChar

StartChar: n
Encoding: 110 110 13
Width: 515
VWidth: 0
Flags: W
HStem: -3 28<40.0007 84.0721 169.513 233.999 293.001 345.875 431.492 478.999> 309 23<50.5466 77.625> 351 47<212.878 328.739> 390 20G<152.5 160>
VStem: 93 71<29.0936 302.031> 354 71<28.9358 324.979>
LayerCount: 3
Back
SplineSet
164 347 m 4
 164 341 164 339 166 339 c 4
 170 339 178 348 187 356 c 4
 218 383 247 398 293 398 c 4
 376 398 425 362 425 270 c 6
 425 72 l 6
 425 30 426 34 457 26 c 4
 469 23 481 21 481 10 c 4
 481 -2 467 -3 457 -3 c 4
 445 -3 412 1 382 1 c 4
 351 1 332 -3 308 -3 c 4
 299 -3 291 -1 291 9 c 4
 291 21 298 22 310 25 c 4
 342 33 354 34 354 67 c 6
 354 228 l 6
 354 284 353 351 264 351 c 4
 224 351 164 323 164 292 c 6
 164 69 l 6
 164 41 175 33 214 26 c 4
 226 24 236 21 236 10 c 4
 236 -2 226 -3 216 -3 c 4
 204 -3 163 1 131 1 c 4
 109 1 64 -3 56 -3 c 4
 47 -3 40 -1 40 9 c 4
 40 21 46 22 58 25 c 4
 90 33 93 58 93 77 c 6
 93 269 l 6
 93 283 93 291 82 297 c 4
 66 306 51 302 51 322 c 4
 51 338 79 338 106 365 c 4
 134 393 136 412 153 412 c 4
 159 412 168 408 168 398 c 4
 168 382 164 362 164 347 c 4
EndSplineSet
Fore
SplineSet
93 252 m 2xec
 93 301 65 307 54 309 c 0
 49 310 49 331 54 332 c 0
 89 341 122 368 144 408 c 0
 145 410 149 410 156 410 c 0xdc
 164 410 165 410 165 408 c 0
 165 400 162 343 162 343 c 2
 162 337 162 335 164 335 c 0
 168 335 207 398 293 398 c 0
 376 398 425 362 425 270 c 2
 425 72 l 2
 425 25 444 25 476 25 c 0
 478 25 479 18 479 11 c 0
 479 3 478 -3 476 -3 c 0
 467 -3 409 0 389 0 c 0
 367 0 301 -3 296 -3 c 0
 294 -3 293 3 293 11 c 0
 293 19 294 25 296 25 c 0
 326 25 354 25 354 69 c 2
 354 228 l 2
 354 284 353 351 264 351 c 0
 224 351 164 323 164 292 c 2
 164 72 l 2
 164 25 176 25 231 25 c 0
 233 25 234 18 234 11 c 0
 234 3 233 -3 231 -3 c 0
 222 -3 148 0 128 0 c 0
 106 0 48 -3 43 -3 c 0
 41 -3 40 3 40 11 c 0
 40 19 41 25 43 25 c 0
 60 25 93 25 93 69 c 2
 93 252 l 2xec
EndSplineSet
Validated: 1
EndChar

StartChar: o
Encoding: 111 111 14
Width: 510
VWidth: 0
Flags: W
HStem: -18 29<200.527 307.267> 367 38<183.445 305.925>
VStem: 36 86<96.5838 287.909> 380 82<98.9758 283.914>
LayerCount: 3
Back
SplineSet
465 197 m 4
 465 56 352 -21 247 -21 c 4
 145 -21 31 46 31 191 c 4
 31 328 145 408 252 408 c 4
 330 408 465 349 465 197 c 4
251 8 m 4
 340 8 383 93 383 181 c 4
 383 274 335 370 245 370 c 4
 160 370 119 288 119 202 c 4
 119 107 168 8 251 8 c 4
EndSplineSet
Fore
SplineSet
462 197 m 0
 462 56 352 -18 247 -18 c 0
 145 -18 36 46 36 191 c 0
 36 328 145 405 252 405 c 0
 330 405 462 349 462 197 c 0
251 11 m 0
 340 11 380 93 380 181 c 0
 380 274 335 367 245 367 c 0
 160 367 122 288 122 202 c 0
 122 107 168 11 251 11 c 0
EndSplineSet
Validated: 1
EndChar

StartChar: p
Encoding: 112 112 15
Width: 502
VWidth: 0
Flags: W
HStem: -278 28<16.0007 81.2949 172.926 244.999> -5 31<200.763 325.836> 334 52<210.707 327.729> 343 25<34.6931 73.7998>
VStem: 91 71<-243.403 9.09024 52.6608 320.377> 397 69<113.475 257.947>
LayerCount: 3
Back
SplineSet
466 208 m 0
 466 132 432 74 380 38 c 0
 349 16 314 0 269 0 c 0
 238 0 206 7 174 22 c 0
 163 27 162 23 162 18 c 2
 162 -198 l 2
 162 -230 163 -237 196 -244 c 0
 219 -249 244 -254 244 -264 c 0
 244 -274 236 -278 215 -278 c 0
 194 -278 166 -274 136 -274 c 0
 112 -274 40 -278 31 -278 c 0
 5 -278 5 -273 5 -264 c 0
 5 -253 15 -250 28 -249 c 0
 90 -246 91 -235 91 -162 c 2
 91 316 l 2
 91 348 33 331 33 355 c 0
 33 380 61 366 96 386 c 0
 122 401 138 427 152 427 c 0
 159 427 168 423 168 410 c 0
 168 400 161 360 161 345 c 0
 161 334 174 341 179 344 c 0
 210 364 238 385 292 385 c 0
 390 385 466 309 466 208 c 0
251 334 m 0
 231 334 210 332 189 323 c 0
 170 315 160 304 160 300 c 2
 160 105 l 2
 160 57 223 26 267 26 c 0
 307 26 337 44 359 68 c 0
 384 95 398 131 398 171 c 0
 398 250 348 334 251 334 c 0
EndSplineSet
Fore
SplineSet
91 286 m 2xec
 91 332 72 336 38 343 c 0
 33 344 33 367 38 368 c 0xdc
 82 376 112 392 140 425 c 0
 142 427 145 427 150 427 c 2
 152 427 l 2
 160 427 161 427 161 425 c 0
 161 417 158 345 158 345 c 2
 158 334 161 334 166 337 c 0
 197 357 238 386 292 386 c 0
 390 386 466 310 466 209 c 0
 466 133 432 74 380 38 c 0
 349 16 314 -5 269 -5 c 0
 225 -5 206 -2 174 13 c 0
 163 18 162 20 162 9 c 2
 162 -203 l 2
 162 -250 195 -250 242 -250 c 0
 244 -250 245 -257 245 -264 c 0
 245 -272 244 -278 242 -278 c 0
 233 -278 146 -275 126 -275 c 0
 104 -275 24 -278 19 -278 c 0
 17 -278 16 -272 16 -264 c 0
 16 -256 17 -250 19 -250 c 0
 58 -250 91 -250 91 -206 c 2
 91 286 l 2xec
251 334 m 0xec
 231 334 210 332 189 323 c 0
 170 315 160 304 160 300 c 2
 160 100 l 2
 160 52 214 26 267 26 c 0
 307 26 337 44 359 68 c 0
 384 95 397 131 397 171 c 0
 397 250 348 334 251 334 c 0xec
EndSplineSet
Validated: 1
EndChar

StartChar: q
Encoding: 113 113 16
Width: 475
VWidth: 0
Flags: W
HStem: 1 41<189.628 318.324> 354 34<178.765 301.106> 383 20G<400 418>
VStem: 31 73<122.415 281.66> 341 71<-242.004 23 46.6143 321.691>
LayerCount: 3
Fore
SplineSet
412 -215 m 2xb8
 412 -261 459 -242 459 -266 c 0
 459 -276 452 -278 440 -278 c 0
 419 -278 386 -274 371 -274 c 0
 333 -274 311 -278 292 -278 c 0
 281 -278 271 -274 271 -267 c 0
 271 -243 341 -262 341 -203 c 2
 341 23 l 2
 341 32 325 25 318 21 c 0
 295 10 271 1 238 1 c 0
 120 1 31 85 31 193 c 0
 31 310 125 388 239 388 c 0xd8
 306 388 356 360 372 360 c 0
 393 360 386 403 414 403 c 0
 422 403 426 393 426 386 c 0
 426 357 412 268 412 217 c 2
 412 -215 l 2xb8
343 270 m 2
 343 321 289 354 243 354 c 0
 167 354 104 291 104 208 c 0
 104 95 192 42 267 42 c 0
 312 42 343 44 343 80 c 2
 343 270 l 2
EndSplineSet
Validated: 1
EndChar

StartChar: r
Encoding: 114 114 17
Width: 337
VWidth: 0
Flags: W
HStem: -3 28<19.0007 76.0469 164.774 248.999> 314 89<204.255 302.667> 332 12<159 203>
VStem: 85 71<30.3413 313.72> 134 21<400.066 419.974>
LayerCount: 3
Back
SplineSet
166 255 m 6xb0
 166 67 l 6
 166 20 199 33 238 26 c 4
 250 24 260 21 260 10 c 4
 260 -2 248 -3 238 -3 c 4
 206 -3 174 1 141 1 c 4
 108 1 76 -3 44 -3 c 4
 35 -3 28 -1 28 9 c 4
 28 21 34 22 46 25 c 4
 78 33 95 26 95 67 c 6
 95 268 l 6
 95 291 95 299 83 309 c 4
 66 322 56 322 56 337 c 4
 56 352 79 351 106 377 c 4
 130 400 134 419 148 419 c 4
 163 419 165 403 165 385 c 6
 165 353 l 6
 165 345 167 344 169 344 c 4xb0
 173 344 178 351 184 357 c 4
 204 379 229 403 266 403 c 4
 295 403 320 387 320 356 c 4
 320 337 309 314 282 314 c 4xd0
 253 314 240 332 213 332 c 4
 178 332 166 299 166 255 c 6xb0
EndSplineSet
Fore
SplineSet
156 72 m 2xb0
 156 25 178 25 246 25 c 0
 248 25 249 18 249 11 c 0
 249 3 248 -3 246 -3 c 0
 237 -3 140 0 120 0 c 0
 98 0 27 -3 22 -3 c 0
 20 -3 19 3 19 11 c 0
 19 19 20 25 22 25 c 0
 54 25 85 25 85 69 c 2
 85 268 l 2xb0
 85 311 70 313 45 320 c 0
 42 321 43 345 45 345 c 0
 81 353 122 386 134 418 c 0
 135 420 139 420 143 420 c 0
 149 420 155 419 155 418 c 0
 155 409 153 370 153 353 c 0
 153 345 157 344 159 344 c 0xa8
 163 344 168 351 174 357 c 0
 194 379 219 403 256 403 c 0
 285 403 310 387 310 356 c 0
 310 337 299 314 272 314 c 0xc8
 243 314 230 332 203 332 c 0
 168 332 156 299 156 255 c 2
 156 72 l 2xb0
EndSplineSet
Validated: 1
EndChar

StartChar: s
Encoding: 115 115 18
Width: 341
VWidth: 0
Flags: W
HStem: -18 33<115.445 212.792> 372 33<130.033 220.723>
VStem: 46 67<275.678 352.592> 239 69<42.0873 129.268>
LayerCount: 3
Back
SplineSet
308 121 m 4
 308 42 261 -19 162 -19 c 4
 113 -19 89 -13 69 -6 c 4
 40 4 41 25 40 52 c 4
 40 61 39 76 39 81 c 4
 39 83 40 105 57 105 c 4
 87 105 75 15 173 15 c 4
 210 15 237 47 237 90 c 4
 237 175 46 172 46 287 c 4
 46 349 92 407 201 407 c 4
 244 407 284 403 284 368 c 6
 284 315 l 6
 284 304 279 294 270 294 c 4
 256 294 246 320 243 325 c 4
 225 360 198 368 180 368 c 4
 146 368 113 355 113 319 c 4
 113 231 308 241 308 121 c 4
EndSplineSet
Fore
SplineSet
308 116 m 0
 308 40 252 -18 162 -18 c 0
 113 -18 80 -9 62 0 c 0
 42 10 41 7 41 35 c 2
 41 101 l 2
 41 103 63 107 66 107 c 0
 68 107 82 15 173 15 c 0
 205 15 239 47 239 88 c 0
 239 174 46 170 46 287 c 0
 46 349 92 405 201 405 c 0
 244 405 284 395 284 385 c 2
 284 303 l 2
 284 301 264 297 261 297 c 0
 257 297 235 372 180 372 c 0
 146 372 113 355 113 319 c 0
 113 229 308 243 308 116 c 0
EndSplineSet
Validated: 1
EndChar

StartChar: t
Encoding: 116 116 19
Width: 303
VWidth: 0
Flags: W
HStem: -11 51<153.57 230.724> 331 24<21.0469 47.265> 335 50<144.271 277>
VStem: 67 71<54.7439 330.916> 116 28<424.44 459>
LayerCount: 3
Back
SplineSet
131 458 m 4
 147 458 148 446 148 421 c 6
 148 403 l 6
 148 387 150 385 158 385 c 6
 255 385 l 6
 271 385 277 380 277 371 c 6
 277 361 l 6
 277 341 276 335 253 335 c 6
 154 335 l 6
 141 335 138 334 138 323 c 6
 138 115 l 6
 138 53 161 40 207 40 c 4
 235 40 245 50 255 50 c 4
 258 50 264 46 264 38 c 4
 264 22 224 -11 173 -11 c 4
 102 -11 67 32 67 96 c 6
 67 311 l 6
 67 323 66 331 52 331 c 6
 32 331 l 6
 23 331 17 332 17 341 c 4
 17 365 43 357 78 393 c 4
 111 427 109 458 131 458 c 4
EndSplineSet
Fore
SplineSet
144 457 m 2xc8
 144 395 l 2xc8
 144 385 146 385 154 385 c 2
 265 385 l 2
 276 385 277 380 277 371 c 2
 277 348 l 2
 277 338 275 335 263 335 c 2
 149 335 l 2
 139 335 138 334 138 323 c 2
 138 123 l 2
 138 61 161 40 207 40 c 0
 238 40 254 52 257 52 c 0
 260 52 266 36 266 34 c 0
 266 29 198 -11 173 -11 c 0
 102 -11 67 32 67 96 c 2
 67 320 l 2xb0
 67 328 66 331 52 331 c 2
 24 331 l 2
 22 331 21 336 21 341 c 0
 21 347 22 354 24 355 c 0
 70 368 113 431 116 457 c 0
 116 459 123 459 130 459 c 0
 137 459 144 459 144 457 c 2xc8
EndSplineSet
Validated: 1
EndChar

StartChar: u
Encoding: 117 117 20
Width: 479
VWidth: 0
Flags: HWO
HStem: -14 54<162.011 256.963> 20 23<415.485 468.974> 353 24<12.0038 47 244.091 292.427> 364 20G<123 129 373 379>
VStem: 69 71<61.8789 340.656> 319 71<43 56 65.3961 338.34>
LayerCount: 3
Back
SplineSet
304 44 m 4x78
 266 9 235 -14 175 -14 c 4
 80 -14 69 82 69 124 c 6
 69 324 l 6
 69 350 13 350 13 365 c 4
 13 377 18 378 33 379 c 4
 75 382 92 383 118 383 c 4
 133 383 141 374 141 348 c 4
 141 328 140 307 140 289 c 6
 140 146 l 6
 140 106 143 40 218 40 c 4xb8
 273 40 319 74 319 97 c 6
 319 324 l 6
 319 359 244 337 244 361 c 4
 244 373 249 378 264 379 c 4
 306 382 342 383 368 383 c 4
 383 383 391 374 391 348 c 4
 391 328 390 307 390 289 c 6
 390 68 l 6
 390 44 392 43 408 43 c 6
 451 43 l 6
 458 43 469 42 469 30 c 4
 469 22 459 18 442 14 c 4
 404 6 337 -10 336 -10 c 4
 321 -10 319 -4 319 38 c 4
 319 58 315 55 304 44 c 4x78
EndSplineSet
Fore
SplineSet
319 301 m 2x9c
 319 341 280 347 245 353 c 0
 244 353 243 377 245 377 c 0xac
 250 377 370 384 376 384 c 0
 382 384 391 374 391 372 c 0
 391 362 390 307 390 289 c 2
 390 68 l 2
 390 44 392 43 408 43 c 2
 464 43 l 2
 465 43 466 37 466 32 c 0
 466 26 465 19 464 19 c 0x5c
 458 19 332 -11 330 -11 c 0
 327 -11 321 -7 321 -5 c 2
 321 56 l 2
 321 62 314 53 304 44 c 0
 266 9 235 -14 175 -14 c 0
 80 -14 69 82 69 124 c 2
 69 313 l 2
 69 339 29 349 13 353 c 0
 12 353 12 361 12 368 c 0
 12 373 12 377 13 377 c 0xac
 18 377 120 384 126 384 c 0
 132 384 141 374 141 372 c 0
 141 362 140 307 140 289 c 2
 140 146 l 2
 140 106 143 40 218 40 c 0
 273 40 319 74 319 97 c 2
 319 301 l 2x9c
EndSplineSet
EndChar

StartChar: v
Encoding: 118 118 21
Width: 455
VWidth: 0
Flags: W
HStem: -16 21G<220.5 230.5> 360 28<8.01172 45.7344 156.344 207.993 274.001 323.922 391.375 433.999>
LayerCount: 3
Back
SplineSet
210 371 m 4
 210 361 206 357 192 355 c 4
 174 352 152 352 152 336 c 4
 152 308 240 106 244 106 c 4
 252 106 325 312 325 340 c 4
 325 363 271 349 271 372 c 4
 271 389 290 389 305 389 c 4
 321 389 339 387 358 387 c 4
 382 387 393 389 413 389 c 4
 423 389 438 387 438 378 c 4
 438 364 433 360 420 358 c 4
 388 352 379 347 360 294 c 4
 330 209 282 106 253 21 c 4
 243 -10 237 -16 224 -16 c 4
 217 -16 208 -6 200 11 c 4
 163 90 91 276 58 328 c 4
 41 355 3 343 3 374 c 4
 3 382 11 389 20 389 c 4
 42 389 64 387 104 387 c 4
 128 387 171 389 195 389 c 4
 207 389 210 383 210 371 c 4
EndSplineSet
Fore
SplineSet
58 328 m 4
 44 360 18 360 11 360 c 4
 9 360 8 368 8 375 c 4
 8 383 9 388 11 388 c 4
 20 388 83 385 103 385 c 4
 125 385 200 388 205 388 c 4
 207 388 208 383 208 375 c 4
 208 367 207 360 205 360 c 4
 177 360 152 352 152 336 c 4
 152 308 240 106 244 106 c 0
 252 106 325 312 325 340 c 4
 325 360 301 360 277 360 c 4
 275 360 274 367 274 374 c 4
 274 382 275 388 277 388 c 4
 286 388 338 385 358 385 c 4
 380 385 426 388 431 388 c 4
 433 388 434 382 434 374 c 4
 434 366 433 360 431 360 c 4
 400 360 380 347 360 294 c 0
 329 209 282 106 253 21 c 0
 243 -10 237 -16 224 -16 c 0
 217 -16 208 -6 200 11 c 0
 163 90 91 276 58 328 c 4
EndSplineSet
Validated: 1
EndChar

StartChar: w
Encoding: 119 119 22
Width: 685
VWidth: 0
Flags: W
HStem: -11 118<234.5 261.5 449.5 473.234> 360 28<20.0117 58.5781 164.01 285.094 383.314 437.993 500.001 549.547 615.383 657.999>
VStem: 320 59<269.737 326.262>
LayerCount: 3
Back
SplineSet
414 390 m 4
 424 390 442 390 442 378 c 4
 442 360 416 360 403 358 c 4
 385 355 377 352 377 341 c 4
 377 335 379 326 384 313 c 6
 384 313 463 109 470 109 c 4
 481 109 528 247 548 312 c 4
 551 323 555 334 555 342 c 4
 555 352 548 358 531 360 c 4
 515 361 498 362 498 375 c 4
 498 389 510 390 523 390 c 4
 541 390 562 388 585 388 c 4
 604 388 626 390 640 390 c 4
 650 390 660 388 660 379 c 4
 660 369 659 363 647 361 c 4
 620 357 609 348 596 313 c 4
 564 230 509 114 480 29 c 4
 471 1 462 -11 453 -11 c 4
 446 -11 438 -5 431 12 c 6
 431 12 348 226 343 226 c 4
 340 226 271 42 263 21 c 4
 251 -9 251 -11 238 -11 c 4
 231 -11 226 -5 218 12 c 4
 181 91 106 277 72 329 c 4
 53 358 14 347 14 375 c 4
 14 383 22 390 34 390 c 4
 56 390 81 388 121 388 c 4
 144 388 168 385 222 385 c 4
 256 385 298 388 324 388 c 4
 351 388 387 390 414 390 c 4
227 362 m 4
 175 362 164 356 164 347 c 4
 164 307 255 107 259 107 c 4
 264 107 303 210 312 237 c 4
 317 251 320 260 320 269 c 4
 320 282 303 319 296 330 c 4
 280 357 277 362 227 362 c 4
EndSplineSet
Fore
SplineSet
164 347 m 0
 164 307 255 107 259 107 c 0
 264 107 303 210 312 237 c 0
 317 251 320 260 320 269 c 0
 320 282 303 319 296 330 c 0
 280 357 274 363 228 363 c 0
 178 363 164 356 164 347 c 0
229 387 m 0
 247 387 310 385 330 385 c 0
 352 385 430 388 435 388 c 0
 437 388 438 383 438 375 c 0
 438 367 437 360 435 360 c 0
 400 360 379 353 379 333 c 0
 379 327 381 321 384 313 c 2
 384 313 463 109 470 109 c 0
 481 109 528.626416261 246.834309241 548 312 c 0
 550.626416261 320.834309241 552 329 552 335 c 0
 552 353 540 360 503 360 c 0
 501 360 500 367 500 374 c 0
 500 382 501 388 503 388 c 0
 512 388 567 385 587 385 c 0
 609 385 650 388 655 388 c 0
 657 388 658 382 658 374 c 0
 658 366 657 360 655 360 c 0
 624 360 609 348 596 313 c 0
 564 230 509 114 480 29 c 0
 471 1 462 -11 453 -11 c 0
 446 -11 438 -5 431 12 c 2
 431 12 348 226 343 226 c 0
 340 226 271 42 263 21 c 0
 251 -9 251 -11 238 -11 c 0
 231 -11 226 -5 218 12 c 0
 181 91 106 277 72 329 c 0
 53 358 39 360 23 360 c 0
 21 360 20 368 20 375 c 0
 20 383 21 388 23 388 c 0
 32 388 97 385 117 385 c 0
 139 385 214 387 229 387 c 0
EndSplineSet
Validated: 524289
EndChar

StartChar: x
Encoding: 120 120 23
Width: 511
VWidth: 0
Flags: W
HStem: -3 28<35.0808 82.6609> 358 31<187.13 222.799 406.146 457.735>
VStem: 35 140<4 68.5> 213 67<175.707 206.095> 321 137<330.5 382.5>
DStem2: 248 245 202 194 0.636265 -0.771471<-106.898 16.0296 68.7282 193.701>
LayerCount: 3
Fore
SplineSet
223 371 m 0
 223 361 219 357 205 355 c 0
 187 352 186 342 186 333 c 0
 186 322 227 270 248 245 c 0
 254 238 257 234 260 234 c 0
 263 234 266 237 271 245 c 0
 288 270 321 320 321 341 c 0
 321 364 282 349 282 372 c 0
 282 389 301 389 316 389 c 0
 332 389 359 387 378 387 c 0
 402 387 413 389 433 389 c 0
 443 389 458 387 458 378 c 0
 458 364 453 360 440 358 c 0
 393 350 320 263 290 226 c 0
 284 218 280 213 280 209 c 0
 280 205 283 201 288 194 c 0
 318 153 402 43 431 26 c 0
 442 20 453 21 453 10 c 0
 453 -2 441 -3 431 -3 c 0
 419 -3 396 1 366 1 c 0
 335 1 316 -3 292 -3 c 0
 283 -3 276 -1 276 9 c 0
 276 22 313 25 313 47 c 0
 313 57 269 113 248 139 c 0
 237 152 237 152 226 139 c 0
 208 118 175 78 175 59 c 0
 175 44 177 30 191 26 c 0
 203 23 213 21 213 10 c 0
 213 -2 201 -3 191 -3 c 0
 179 -3 154 1 121 1 c 0
 88 1 83 -3 51 -3 c 0
 42 -3 35 -1 35 9 c 0
 35 21 41 22 53 25 c 0
 106 38 158 107 202 157 c 0
 209 165 213 170 213 175 c 0
 213 180 209 185 202 194 c 0
 176 227 119 298 88 333 c 0
 67 357 33 347 33 374 c 0
 33 382 41 389 50 389 c 0
 72 389 84 387 124 387 c 0
 148 387 176 389 190 389 c 0
 212 389 223 383 223 371 c 0
EndSplineSet
Validated: 1
EndChar

StartChar: y
Encoding: 121 121 24
Width: 503
VWidth: 0
Flags: W
HStem: -246 79<56.5904 143.965> 360 28<28.0007 65.7344 165.25 214.999 274.001 320.37 384 419.999>
LayerCount: 3
Back
SplineSet
52 -209 m 0
 52 -174 82 -167 101 -167 c 0
 105 -167 116 -169 120 -169 c 0
 135 -169 147 -141 154 -124 c 0
 177 -70 194 -19 194 -7 c 0
 194 -3 93 294 78 328 c 0
 64 360 23 343 23 374 c 0
 23 382 31 389 40 389 c 0
 62 389 84 387 124 387 c 0
 148 387 174 389 198 389 c 0
 210 389 218 386 218 374 c 0
 218 364 207 362 193 360 c 0
 175 357 160 345 160 329 c 0
 160 301 236 89 240 89 c 0
 245 89 325 304 325 328 c 0
 325 372 271 349 271 372 c 0
 271 389 290 389 305 389 c 0
 311 389 321 387 348 387 c 0
 361 387 389 389 399 389 c 0
 409 389 419 387 419 378 c 0
 419 364 413 363 401 358 c 0
 377 348 379 347 360 294 c 0
 330 209 281 106 252 21 c 0
 245 -1 207 -98 175 -172 c 0
 168 -189 162 -210 152 -225 c 0
 142 -240 125 -246 105 -246 c 0
 72 -246 52 -234 52 -209 c 0
EndSplineSet
Fore
SplineSet
160 329 m 0
 160 301 236 89 240 89 c 0
 245 89 325 304 325 328 c 0
 325 358 301 360 277 360 c 0
 275 360 274 367 274 374 c 0
 274 382 275 388 277 388 c 0
 286 388 328 385 348 385 c 0
 370 385 412 388 417 388 c 0
 419 388 420 382 420 374 c 0
 420 366 419 360 417 360 c 0
 384 360 381 347 360 294 c 2
 175 -172 l 2
 161 -206 157 -246 105 -246 c 0
 72 -246 52 -234 52 -209 c 0
 52 -174 82 -167 101 -167 c 0
 105 -167 116 -169 120 -169 c 0
 135 -169 147 -141 154 -124 c 0
 177 -70 194 -19 194 -7 c 0
 194 -3 93 294 78 328 c 0
 64 360 38 360 31 360 c 0
 29 360 28 367 28 374 c 0
 28 382 29 388 31 388 c 0
 40 388 98 385 118 385 c 0
 140 385 207 388 212 388 c 0
 214 388 215 382 215 374 c 0
 215 366 214 360 212 360 c 0
 184 360 160 355 160 329 c 0
EndSplineSet
Validated: 1
EndChar

StartChar: z
Encoding: 122 122 25
Width: 421
VWidth: 0
Flags: W
HStem: 0 47<174.556 316.34> 0 38<138.996 248.444> 345 35<112.164 256.562>
VStem: 323 38<53.5415 114.244>
DStem2: 40 37 139 57 0.600437 0.799672<67.9262 368.835>
LayerCount: 3
Fore
SplineSet
326 0 m 2x70
 78 0 l 2
 47 0 35 0 35 16 c 0
 35 19 37 33 40 37 c 2
 260 330 l 2
 268 341 267 345 249 345 c 2
 144 345 l 2
 118 345 114 342 90 318 c 0
 85 313 63 294 58 294 c 0
 48 294 47 300 47 309 c 0
 47 333 66 362 77 411 c 0
 79 422 88 431 95 431 c 0
 106 431 110 418 112 398 c 0
 113 390 113 380 154 380 c 2
 333 380 l 2
 355 380 364 373 364 364 c 0
 364 355 356 343 346 330 c 2
 139 57 l 2
 127 41 137 37 145 38 c 2x70
 278 47 l 2xb0
 298 48 310 49 323 83 c 0
 330 101 337 116 348 116 c 0
 358 116 361 105 361 93 c 0
 361 64 359 54 358 24 c 0
 357 4 334 0 326 0 c 2x70
EndSplineSet
Validated: 1
EndChar

